<svg width="199" height="159" viewBox="0 0 199 159" fill="none" xmlns="http://www.w3.org/2000/svg">
<path d="M199 22.5V60H191.5V35.332L146.5 80.332L124 57.832L84.4492 97.3242L79.1758 92.0508L124 47.168L146.5 69.668L186.168 30H161.5V22.5H199Z" fill="#0FA958"/>
<path d="M13.3438 133.438C9.53125 133.438 6.92708 133.406 5.53125 133.344L4.625 135.5C4.35417 136.104 4.10417 136.74 3.875 137.406C3.39583 138.698 2.72917 139.344 1.875 139.344C1.47917 139.344 1.15625 139.219 0.90625 138.969C0.65625 138.719 0.53125 138.458 0.53125 138.188C0.53125 137.729 0.729167 137.219 1.125 136.656C1.75 135.781 2.36458 134.635 2.96875 133.219C1.17708 133.052 0.28125 132.531 0.28125 131.656C0.28125 130.781 0.791667 130.344 1.8125 130.344C2.4375 130.344 3.16667 130.448 4 130.656L19.5938 92.7812L40.9688 139H24.6875L22.0938 133.438H13.3438ZM6.53125 130.906C8.53125 131.073 10.3229 131.156 11.9062 131.156H21.0625L13.25 114.312L6.53125 130.906ZM73.3125 105.062C80.6458 105.062 84.3125 108.625 84.3125 115.75V139H70.875V108.594C70.5 108.344 70 108.219 69.375 108.219C68.7708 108.219 68.1354 108.365 67.4688 108.656C66.8021 108.948 66.1042 109.354 65.375 109.875C63.8125 111.021 62.4271 112.458 61.2188 114.188V139H47.7812V94.7812H61.2188V110.906C64.7812 107.01 68.8125 105.062 73.3125 105.062ZM101.094 100.156C98.9479 100.156 97.2708 99.6771 96.0625 98.7188C94.8542 97.7604 94.25 96.5 94.25 94.9375C94.25 93.625 94.9167 92.5 96.25 91.5625C97.6667 90.5625 99.1667 90.0625 100.75 90.0625C102.333 90.0625 103.552 90.2188 104.406 90.5312C105.281 90.8438 106.021 91.25 106.625 91.75C107.833 92.7708 108.438 93.9583 108.438 95.3125C108.438 96.6667 107.75 97.8125 106.375 98.75C105 99.6875 103.24 100.156 101.094 100.156ZM94.5312 105.625H107.969V139H94.5312V105.625ZM139.125 136.938C136.458 138.708 133.5 139.594 130.25 139.594C125.938 139.594 122.479 138.51 119.875 136.344C117.167 134.115 115.812 131.021 115.812 127.062C115.812 123.562 117.156 120.688 119.844 118.438C122.594 116.167 126.208 115.031 130.688 115.031C133.688 115.031 136.5 115.604 139.125 116.75V108.156C137.229 107.615 135.552 107.344 134.094 107.344C132.656 107.344 131.438 107.406 130.438 107.531C129.438 107.656 128.49 107.844 127.594 108.094C125.656 108.635 124.188 109.365 123.188 110.281C122.604 110.823 122.073 111.094 121.594 111.094C121.115 111.094 120.75 110.979 120.5 110.75C120.25 110.5 120.125 110.229 120.125 109.938C120.125 109.646 120.177 109.385 120.281 109.156C120.385 108.906 120.583 108.656 120.875 108.406C121.5 107.865 122.542 107.323 124 106.781C127.021 105.635 130.052 105.062 133.094 105.062C142.344 105.062 148.25 107.271 150.812 111.688C151.938 113.646 152.5 116.219 152.5 119.406V139H139.125V136.938ZM139.125 119.188C136.5 117.917 133.885 117.281 131.281 117.281C130.865 117.281 130.469 117.312 130.094 117.375V137.25C130.198 137.271 130.312 137.281 130.438 137.281C130.562 137.281 130.688 137.281 130.812 137.281C133.667 137.281 136.438 136.271 139.125 134.25V119.188ZM160.438 139.344C159.583 139.344 159.156 138.938 159.156 138.125C159.156 137.5 159.615 136.792 160.531 136C161.365 135.229 162.042 134.479 162.562 133.75C162.562 133.75 165.448 129.542 171.219 121.125L158.531 94.7812H175.094L182.594 110.406L189.125 101.031C190.333 99.2396 191.229 97.5625 191.812 96C192.271 94.9583 192.896 94.4375 193.688 94.4375C194.479 94.4375 194.875 94.8854 194.875 95.7812C194.875 96.2812 194.333 97.3438 193.25 98.9688L183.875 113.062L196.375 139H179.875L172.531 123.812L164.531 135.312C162.948 137.521 161.833 138.802 161.188 139.156C160.938 139.281 160.688 139.344 160.438 139.344Z" fill="black"/>
</svg>
