<svg width="109" height="35" viewBox="0 0 109 35" fill="none" xmlns="http://www.w3.org/2000/svg">
<path d="M5.152 3.944C7.424 1.864 9.152 0.823999 10.336 0.823999C11.52 0.823999 13.248 1.864 15.52 3.944C17.792 6.024 19.2 7.736 19.744 9.08C20.096 10.008 20.272 12.104 20.272 15.368V35H13.648V27.8H7.024V35H0.4V15.368C0.4 12.104 0.576 10.008 0.928 9.08C1.472 7.736 2.88 6.024 5.152 3.944ZM7.024 15.368V22.04H13.648V15.368C13.648 12.744 13.52 11.144 13.264 10.568C13.008 9.96 12.56 9.336 11.92 8.696C11.312 8.024 10.784 7.688 10.336 7.688C9.888 7.688 9.344 8.024 8.704 8.696C8.096 9.336 7.664 9.96 7.408 10.568C7.152 11.144 7.024 12.744 7.024 15.368ZM39.2643 35V19.64H32.6403V35H26.0163V14.456C26.0163 11.736 25.8243 9.848 25.4403 8.792C25.0883 7.704 24.3203 6.392 23.1363 4.856L28.8963 0.823999C29.9203 1.496 30.8003 2.744 31.5363 4.568C32.2723 6.36 32.6403 8.536 32.6403 11.096V13.88H39.2643V1.4H45.8883V35H39.2643ZM50.9849 35V1.4H57.6089V35H50.9849ZM67.4489 3.944C69.7209 1.864 71.4489 0.823999 72.6329 0.823999C73.8169 0.823999 75.5449 1.864 77.8169 3.944C80.0889 6.024 81.4969 7.736 82.0409 9.08C82.3929 10.008 82.5689 12.104 82.5689 15.368V35H75.9449V27.8H69.3209V35H62.6969V15.368C62.6969 12.104 62.8729 10.008 63.2249 9.08C63.7689 7.736 65.1769 6.024 67.4489 3.944ZM69.3209 15.368V22.04H75.9449V15.368C75.9449 12.744 75.8169 11.144 75.5609 10.568C75.3049 9.96 74.8569 9.336 74.2169 8.696C73.6089 8.024 73.0809 7.688 72.6329 7.688C72.1849 7.688 71.6409 8.024 71.0009 8.696C70.3929 9.336 69.9609 9.96 69.7049 10.568C69.4489 11.144 69.3209 12.744 69.3209 15.368ZM100.985 1.4H107.609C107.609 2.52 107.481 4.296 107.225 6.728C107.001 9.16 106.793 10.648 106.601 11.192C106.249 12.28 104.873 14.024 102.473 16.424C103.657 17.544 104.713 18.712 105.641 19.928C106.569 21.144 107.129 22.088 107.321 22.76C107.545 23.4 107.769 25.256 107.993 28.328C108.249 31.368 108.377 33.592 108.377 35H101.753C101.753 33.848 101.641 31.816 101.417 28.904C101.193 25.96 101.017 24.248 100.889 23.768C100.601 23 100.009 22.12 99.1131 21.128C98.2171 20.136 97.5611 19.64 97.1451 19.64C96.7291 19.64 96.0731 20.136 95.1771 21.128C94.2811 22.12 93.7211 22.936 93.4971 23.576C93.2731 24.184 93.0491 25.944 92.8251 28.856C92.6331 31.736 92.5371 33.784 92.5371 35H85.9131C85.9131 33.592 86.0251 31.368 86.2491 28.328C86.5051 25.256 86.7291 23.4 86.9211 22.76C87.1451 22.088 87.7211 21.144 88.6491 19.928C89.5771 18.712 90.6331 17.544 91.8171 16.424C90.6331 15.784 89.6891 14.888 88.9851 13.736C88.3131 12.552 87.8971 11.432 87.7371 10.376C87.2571 7.528 86.3771 5.688 85.0971 4.856L90.8571 0.823999C91.8171 1.368 92.5691 2.264 93.1131 3.512C93.6571 4.728 93.9931 5.96 94.1211 7.208C94.2811 8.424 94.6011 9.688 95.0811 11C95.5931 12.28 96.2811 13.24 97.1451 13.88C97.6891 13.784 98.2491 13.336 98.8251 12.536C99.4331 11.704 99.8331 11 100.025 10.424C100.217 9.848 100.425 8.424 100.649 6.152C100.873 3.848 100.985 2.264 100.985 1.4Z" fill="#4B4453"/>
</svg>
